<svg width="249" height="72" viewBox="0 0 249 72" fill="none" xmlns="http://www.w3.org/2000/svg">
<g clip-path="url(#clip0_268_21)">
<path d="M13.6672 1.3136C8.60755 3.42355 3.04393 9.37813 1.28787 16.8678C-0.940088 26.3491 8.32265 30.3531 9.07946 29.0468C9.96997 27.4973 7.41436 26.9773 6.8925 22.0611C6.22104 15.7037 9.17924 8.6009 12.9121 5.48424C13.6084 4.91452 13.5746 5.71851 13.5746 7.20057C13.5746 9.87344 13.4251 33.7872 13.4251 38.7798C13.4251 45.5383 13.1472 47.6663 12.6343 49.7676C12.1302 51.9046 11.3146 53.3456 11.9291 53.9066C12.6254 54.5259 15.5836 53.0511 17.2986 50.6657C19.3503 47.8082 20.0733 44.374 20.2068 40.6468C20.3582 36.1583 20.3494 29.0219 20.3582 24.9593C20.3582 21.2233 20.4169 10.3011 20.2994 3.72544C20.2656 2.11759 15.7776 0.433207 13.6672 1.3136ZM246.941 36.7939C246.217 36.7939 245.874 37.5482 245.596 38.8136C244.638 43.2276 243.63 44.2233 242.326 44.2233C240.873 44.2233 239.569 42.0385 239.226 37.6653C238.965 34.231 239.006 27.8985 239.343 21.5997C239.411 20.3095 239.056 19.0297 235.576 17.7644C234.073 17.2284 231.895 16.4244 230.812 19.0369C227.744 26.4006 226.55 32.2629 226.264 34.634C226.257 34.7581 226.105 34.776 226.079 34.4919C225.904 32.5894 225.5 29.1302 225.45 21.8589C225.432 20.4532 225.138 19.2374 223.558 18.2489C222.542 17.6134 219.448 16.474 218.33 17.823C217.371 18.9286 216.255 21.8943 215.087 25.412C214.144 28.2766 213.489 30.22 213.489 30.22C213.489 30.22 213.496 22.496 213.514 19.5641C213.514 18.4583 212.757 18.0909 212.531 18.0234C211.496 17.7218 209.454 17.2284 208.597 17.2284C207.53 17.2284 207.277 17.823 207.277 18.6855C207.277 18.7937 207.101 28.8446 207.101 35.8728V36.8613C206.52 40.0951 204.606 44.4842 202.529 44.4842C200.453 44.4842 199.47 42.649 199.47 34.2736C199.47 29.3894 199.621 27.2632 199.689 23.7278C199.73 21.692 199.813 20.1266 199.806 19.7664C199.788 18.6855 197.897 18.1318 197.022 17.9312C196.141 17.7218 195.375 17.6543 194.771 17.6792C193.931 17.7306 193.334 18.2826 193.334 19.0546V20.226C192.25 18.5186 190.492 17.3278 189.316 16.9852C186.173 16.0553 182.885 16.884 180.406 20.3342C178.44 23.0835 177.254 26.1894 176.793 30.6549C176.447 33.9222 176.558 37.2306 177.17 40.0276C176.431 43.185 175.069 44.4842 173.582 44.4842C171.413 44.4842 169.851 40.9647 170.027 34.8753C170.154 30.8732 170.951 28.0672 171.833 23.9957C172.212 22.2617 171.901 21.3584 171.136 20.478C170.438 19.69 168.942 19.28 166.8 19.7734C165.277 20.1338 163.085 20.5189 161.092 20.8134C161.092 20.8134 161.21 20.3342 161.311 19.4895C161.824 15.0577 156.991 15.418 155.452 16.8343C154.527 17.6792 153.897 18.6766 153.662 20.4692C153.284 23.3178 155.612 24.6577 155.612 24.6577C154.848 28.1417 152.982 32.6976 151.04 35.99C150.006 37.7577 149.215 39.0568 148.191 40.4465C148.182 39.9354 148.182 39.4153 148.182 38.9059C148.164 31.576 148.256 25.806 148.299 23.7278C148.342 21.692 148.426 20.1674 148.426 19.8071C148.408 19.0191 147.946 18.7103 146.97 18.3412C146.114 18.0075 145.097 17.7644 144.046 17.6792C142.727 17.5798 141.92 18.2826 141.945 19.1115V20.226C140.853 18.5186 139.095 17.3278 137.936 16.9852C134.783 16.0553 131.498 16.884 129.019 20.3342C127.06 23.0835 125.765 26.9278 125.394 30.6123C125.06 34.0642 125.118 36.9784 125.588 39.4419C125.084 41.9035 123.647 44.4842 122.018 44.4842C119.941 44.4842 118.755 42.649 118.755 34.2736C118.755 29.3894 118.906 27.2632 118.983 23.7278C119.024 21.692 119.101 20.1266 119.092 19.7664C119.083 18.6855 117.193 18.1318 116.31 17.9312C115.394 17.7146 114.595 17.6473 113.989 17.6792C113.182 17.7466 112.62 18.4583 112.62 19.0031V20.226C111.528 18.5186 109.77 17.3278 108.602 16.9852C105.459 16.0553 102.198 16.9018 99.7007 20.3342C98.0711 22.5724 96.7515 25.0589 96.0712 30.5714C95.8859 32.1634 95.7933 33.6525 95.8022 35.0439C95.1539 38.9964 92.2885 43.5541 89.9518 43.5541C88.5733 43.5541 87.2626 40.9061 87.2626 35.2533C87.2626 27.7318 87.7328 17.0101 87.8165 15.9718C87.8165 15.9718 90.7746 15.9203 91.3552 15.9132C92.8262 15.9043 94.1709 15.9381 96.1299 15.8369C97.1218 15.7873 98.0711 12.2607 97.0453 11.817C96.5912 11.6235 93.3303 11.4477 92.0355 11.423C90.9438 11.3981 87.9251 11.1727 87.9251 11.1727C87.9251 11.1727 88.1958 4.06102 88.2546 3.31559C88.3044 2.67839 87.4977 2.36079 87.0275 2.16724C85.8912 1.68272 84.8743 1.45563 83.6812 1.21244C82.0088 0.869945 81.2608 1.20538 81.1183 2.60212C80.8993 4.72298 80.7817 10.9385 80.7817 10.9385C79.5546 10.9385 75.3944 10.6935 74.1744 10.6935C73.0417 10.6935 71.8129 15.5529 73.3855 15.6115C75.1931 15.6789 78.3276 15.7464 80.4113 15.8031C80.4113 15.8031 80.3186 26.7023 80.3186 30.0603V31.0985C79.1682 37.053 75.1414 40.2708 75.1414 40.2708C76.007 36.3254 74.2421 33.3685 71.0488 30.8732C69.8717 29.9431 67.5529 28.1914 64.9545 26.2906C64.9545 26.2906 66.4593 24.8086 67.795 21.8429C68.7372 19.7398 68.78 17.3206 66.4593 16.7918C62.6268 15.9132 59.4745 18.7192 58.5252 21.7169C57.8022 24.0294 58.1815 25.7545 59.617 27.5382L59.9447 27.9411C59.0881 29.5988 57.8948 31.835 56.8939 33.5691C54.096 38.386 51.9856 42.1893 50.397 42.1893C49.1201 42.1893 49.1361 38.3274 49.1361 34.7085C49.1361 31.592 49.3712 26.8939 49.5565 22.0363C49.6153 20.4354 48.8085 19.5143 47.4567 18.6855C46.6321 18.1832 44.8832 17.1947 43.8664 17.1947C42.3543 17.1947 37.966 17.3951 33.8236 29.3308C33.3017 30.8394 32.2759 33.578 32.2759 33.578L32.3686 19.2214C32.3686 18.886 32.1923 18.5684 31.7809 18.3412C31.0827 17.9649 29.2091 17.1947 27.5618 17.1947C26.7621 17.1947 26.3667 17.5638 26.3667 18.2915L26.2332 40.7394C26.2332 42.4485 26.2742 44.4416 26.4434 45.313C26.6108 46.1844 26.8886 46.8961 27.2252 47.3221C27.5618 47.7338 27.9554 48.0515 28.5947 48.1936C29.1913 48.3195 32.4772 48.7295 32.6464 47.4818C32.8565 45.9821 32.8636 44.367 34.5876 38.3114C37.2768 28.8959 40.7746 24.3063 42.4219 22.6717C42.7158 22.3877 43.0436 22.37 43.0257 22.8403C42.9509 24.9079 42.707 30.0603 42.5395 34.4405C42.0943 46.1756 44.2278 48.3444 47.2965 48.3444C49.633 48.3444 52.9278 46.0247 56.4665 40.1625C58.6767 36.5011 60.812 32.9248 62.3579 30.3371C63.4175 31.3239 64.6267 32.3888 65.8289 33.5282C68.6285 36.1657 69.544 38.6788 68.9313 41.0588C68.4682 42.8832 66.7123 44.7593 63.5938 42.9348C62.6856 42.4059 62.2991 41.9959 61.3836 41.3924C60.8957 41.0659 60.1388 40.9736 59.6936 41.3091C58.5164 42.1893 57.852 43.3021 57.4656 44.6848C57.104 46.0336 58.4576 46.7364 59.8609 47.3558C61.0631 47.9007 63.6526 48.3781 65.3072 48.4366C71.7541 48.6549 76.9153 45.3378 80.5039 36.7939C81.1521 44.1736 83.8823 48.3533 88.6321 48.3533C91.8164 48.3533 95.0026 44.257 96.3988 40.2282C96.7925 41.8699 97.389 43.2932 98.1549 44.5091C101.82 50.2878 108.93 49.0489 112.493 44.1398C113.603 42.6153 113.772 42.0705 113.772 42.0705C114.292 46.7045 118.041 48.3355 120.185 48.3355C122.596 48.3355 125.068 47.1979 126.807 43.2932C127.017 43.721 127.236 44.1238 127.489 44.5091C131.145 50.2878 138.255 49.0489 141.827 44.1398C141.987 43.8968 142.139 43.6962 142.263 43.5027L142.374 46.5518C142.374 46.5518 140.331 48.4119 139.079 49.5584C133.574 54.5936 129.387 58.4129 129.077 62.8518C128.691 68.5223 133.296 70.6254 136.793 70.9005C140.491 71.1952 143.669 69.1594 145.617 66.2948C147.332 63.7817 148.459 58.3792 148.376 53.0352C148.342 50.8912 148.29 48.1776 148.24 45.2545C150.182 43.027 152.367 40.1944 154.369 36.8791C156.561 33.2762 158.898 28.4257 160.091 24.6489C160.091 24.6489 162.134 24.6666 164.303 24.5318C165.001 24.4892 165.202 24.6329 165.067 25.1352C164.915 25.7457 162.328 35.7059 164.689 42.3402C166.312 46.8784 169.95 48.3444 172.119 48.3444C174.648 48.3444 177.07 46.4346 178.363 43.6039C178.523 43.9145 178.684 44.2233 178.869 44.5091C182.525 50.2878 189.61 49.0402 193.207 44.1398C194.023 43.027 194.477 42.0705 194.477 42.0705C195.25 46.8713 198.999 48.3533 201.142 48.3533C203.386 48.3533 205.503 47.441 207.227 43.3856C207.295 45.171 207.403 46.6282 207.588 47.0878C207.697 47.3736 208.336 47.725 208.791 47.9007C210.841 48.6549 212.926 48.2947 213.69 48.135C214.228 48.0267 214.648 47.6079 214.7 46.5021C214.849 43.6039 214.757 38.7374 215.64 35.1114C217.127 29.0469 218.506 26.6935 219.161 25.5292C219.524 24.8743 219.943 24.766 219.952 25.4529C219.977 26.8514 220.053 30.9565 220.632 36.4851C221.045 40.5388 221.608 42.9418 222.044 43.7051C223.272 45.8739 224.801 45.975 226.037 45.975C226.828 45.975 228.475 45.7567 228.331 44.3741C228.256 43.7051 228.383 39.5414 229.836 33.562C230.794 29.6503 232.383 26.1238 232.955 24.8334C233.174 24.3561 233.266 24.7252 233.266 24.7997C233.14 27.4886 232.871 36.2916 233.963 41.0996C235.46 47.6256 239.77 48.3533 241.275 48.3533C244.477 48.3533 247.109 45.9235 247.991 39.5254C248.21 37.983 247.889 36.7939 246.94 36.7939M112.552 32.8412C112.376 36.2241 111.711 39.0567 110.653 41.1083C108.719 44.8355 104.913 46.0086 103.239 40.6398C102.021 36.7619 102.433 31.4675 102.946 28.6102C103.685 24.3719 105.56 21.3742 108.484 21.6492C111.476 21.9439 112.938 25.7882 112.552 32.8412ZM141.877 32.891C141.71 36.0821 140.878 39.298 139.97 41.1083C138.096 44.8603 134.178 46.0335 132.556 40.6398C131.448 36.9446 131.708 32.1793 132.262 29.1799C132.978 25.2771 134.7 21.6492 137.802 21.6492C140.819 21.6492 142.306 24.9504 141.877 32.891M142.643 54.7016C142.6 60.5408 141.685 65.6504 139.717 67.1413C136.91 69.2516 133.136 67.6596 133.918 63.4054C134.607 59.6357 137.877 55.7914 142.652 51.0917C142.652 51.0917 142.668 52.1636 142.643 54.7016M193.275 32.9247C193.106 36.4352 192.324 39.1738 191.359 41.1083C189.484 44.8603 185.601 46.0245 183.945 40.6398C183.046 37.699 183.003 32.7898 183.651 28.6953C184.306 24.5227 186.148 21.3742 189.19 21.6492C192.198 21.935 193.603 25.7882 193.275 32.9247Z" fill="white"/>
</g>
<defs>
<clipPath id="clip0_268_21">
<rect width="249" height="72" fill="white"/>
</clipPath>
</defs>
</svg>
